<svg width="17" height="16" viewBox="0 0 17 16" fill="none" xmlns="http://www.w3.org/2000/svg">
<path fill-rule="evenodd" clip-rule="evenodd" d="M5.96936 0H11.9694C14.7304 0 16.9694 2.14752 16.9694 4.79571V10.5506C16.9694 13.1988 14.7304 15.3463 11.9694 15.3463H5.96936C3.20836 15.3463 0.96936 13.1988 0.96936 10.5506V4.79571C0.96936 2.14752 3.20836 0 5.96936 0ZM11.9694 13.9075C13.8994 13.9075 15.4694 12.4017 15.4694 10.5505V4.79568C15.4694 2.94454 13.8994 1.43868 11.9694 1.43868H5.96936C4.03936 1.43868 2.46936 2.94454 2.46936 4.79568V10.5505C2.46936 12.4017 4.03936 13.9075 5.96936 13.9075H11.9694Z" fill="white"/>
<path fill-rule="evenodd" clip-rule="evenodd" d="M4.96936 7.67312C4.96936 5.55437 6.76036 3.83655 8.96936 3.83655C11.1784 3.83655 12.9694 5.55437 12.9694 7.67312C12.9694 9.79186 11.1784 11.5097 8.96936 11.5097C6.76036 11.5097 4.96936 9.79186 4.96936 7.67312ZM6.46936 7.67311C6.46936 8.99481 7.59136 10.071 8.96936 10.071C10.3474 10.071 11.4694 8.99481 11.4694 7.67311C11.4694 6.35045 10.3474 5.27525 8.96936 5.27525C7.59136 5.27525 6.46936 6.35045 6.46936 7.67311Z" fill="white"/>
<ellipse cx="13.2694" cy="3.54876" rx="0.533" ry="0.511223" fill="white"/>
</svg>
