<svg width="13" height="14" viewBox="0 0 13 14" fill="none" xmlns="http://www.w3.org/2000/svg">
<path d="M11.2653 4.08501C11.261 4.03035 11.2133 3.98808 11.1562 3.98808H9.71201C9.42232 3.98808 9.18748 3.75324 9.18748 3.46355C9.18748 1.78599 7.76451 0.421265 6.01561 0.421265C4.2667 0.421265 2.84373 1.78599 2.84373 3.46355C2.84373 3.75324 2.60889 3.98808 2.3192 3.98808H0.874985C0.817891 3.98808 0.770204 4.03035 0.765938 4.08501L0.000313585 13.7364C-0.00198329 13.7654 0.00840733 13.7942 0.0291886 13.8156C0.0498604 13.8371 0.0789541 13.8493 0.10936 13.8493H11.9219C11.9523 13.8493 11.9814 13.8371 12.002 13.8157C12.0227 13.7943 12.0332 13.7655 12.0309 13.7365L11.2653 4.08501ZM3.71873 3.46355C3.71873 2.24884 4.74905 1.26051 6.01561 1.26051C7.28217 1.26051 8.31248 2.24884 8.31248 3.46355C8.31248 3.75324 8.07764 3.98808 7.78795 3.98808H4.24326C3.95357 3.98808 3.71873 3.75324 3.71873 3.46355ZM3.28123 6.92545C2.67803 6.92545 2.18748 6.45484 2.18748 5.87639C2.18748 5.78062 2.19893 5.68702 2.22182 5.59762C2.33707 5.14756 2.84373 5.41181 2.84373 5.87639C2.84373 6.10781 3.04006 6.29601 3.28123 6.29601C3.52241 6.29601 3.71873 6.10781 3.71873 5.87639C3.71873 5.41211 4.22441 5.14845 4.34036 5.59801C4.36344 5.6875 4.37498 5.78102 4.37498 5.87639C4.37498 6.45484 3.88444 6.92545 3.28123 6.92545ZM8.74998 6.92545C8.14678 6.92545 7.65623 6.45484 7.65623 5.87639C7.65623 5.78062 7.66768 5.68702 7.69057 5.59762C7.80581 5.14756 8.31248 5.41181 8.31248 5.87639C8.31248 6.10781 8.50881 6.29601 8.74998 6.29601C8.99115 6.29601 9.18748 6.10781 9.18748 5.87639C9.18748 5.41211 9.69315 5.14845 9.80911 5.59801C9.83219 5.6875 9.84373 5.78102 9.84373 5.87639C9.84373 6.45484 9.35318 6.92545 8.74998 6.92545Z" fill="black"/>
</svg>
