<svg width="21" height="16" viewBox="0 0 21 16" fill="none" xmlns="http://www.w3.org/2000/svg">
<path d="M20.5249 1.80415C19.7977 2.11011 19.0228 2.31292 18.2149 2.41139C19.046 1.93544 19.6804 1.18753 19.9786 0.286038C19.2037 0.729162 18.3481 1.04216 17.4364 1.21683C16.7006 0.465397 15.6519 0 14.5079 0C12.2884 0 10.5015 1.72795 10.5015 3.84627C10.5015 4.15106 10.5284 4.44413 10.5944 4.72314C7.26136 4.56722 4.31214 3.03505 2.33092 0.701027C1.98503 1.27662 1.78214 1.93544 1.78214 2.64468C1.78214 3.97639 2.49714 5.15688 3.56292 5.84033C2.9188 5.8286 2.28692 5.64924 1.75158 5.36672C1.75158 5.37845 1.75158 5.39369 1.75158 5.40893C1.75158 7.27755 3.14125 8.82965 4.96358 9.1872C4.63725 9.27278 4.28158 9.31381 3.91247 9.31381C3.6558 9.31381 3.39669 9.29974 3.15347 9.24816C3.67292 10.771 5.14692 11.8905 6.89958 11.9268C5.53558 12.9502 3.80369 13.5669 1.9288 13.5669C1.60003 13.5669 1.28469 13.5528 0.96936 13.5141C2.74525 14.6125 4.84992 15.2397 7.11958 15.2397C14.4969 15.2397 18.5302 9.37828 18.5302 4.2976C18.5302 4.12762 18.5241 3.9635 18.5156 3.80055C19.3112 3.25895 19.9798 2.58255 20.5249 1.80415Z" fill="white"/>
</svg>
